<svg xmlns="http://www.w3.org/2000/svg" xmlns:xlink="http://www.w3.org/1999/xlink" width="177" height="177" viewBox="0 0 177 177">
  <defs>
    <filter id="Path_1" x="34.999" y="34.075" width="123.001" height="131.849" filterUnits="userSpaceOnUse">
      <feOffset dy="12" input="SourceAlpha"/>
      <feGaussianBlur stdDeviation="8" result="blur"/>
      <feFlood flood-opacity="0.302"/>
      <feComposite operator="in" in2="blur"/>
      <feComposite in="SourceGraphic"/>
    </filter>
    <filter id="Path_2" x="34.999" y="10.075" width="123.001" height="131.849" filterUnits="userSpaceOnUse">
      <feOffset dy="-12" input="SourceAlpha"/>
      <feGaussianBlur stdDeviation="8" result="blur-2"/>
      <feFlood flood-color="#fff"/>
      <feComposite operator="in" in2="blur-2"/>
      <feComposite in="SourceGraphic"/>
    </filter>
  </defs>
  <g id="Group_44" data-name="Group 44" transform="translate(-92 -260)">
    <g id="Group_38" data-name="Group 38">
      <g id="Group_4" data-name="Group 4" transform="translate(7 25)">
        <g id="Ellipse_1" data-name="Ellipse 1" transform="translate(85 235)" fill="#eaf0f8" stroke="#fff" stroke-width="1">
          <circle cx="88.5" cy="88.5" r="88.5" stroke="none"/>
          <circle cx="88.5" cy="88.5" r="88" fill="none"/>
        </g>
        <g id="Component_1_5" data-name="Component 1 – 5" transform="translate(85 235)">
          <g id="Group_43" data-name="Group 43">
            <g id="Ellipse_2" data-name="Ellipse 2" fill="#eaf0f8" stroke="#fff" stroke-width="1">
              <circle cx="88.5" cy="88.5" r="88.5" stroke="none"/>
              <circle cx="88.5" cy="88.5" r="88" fill="none"/>
            </g>
          </g>
        </g>
      </g>
      <g id="Group_5" data-name="Group 5" transform="translate(-74.001 -185)">
        <g transform="matrix(1, 0, 0, 1, 166, 445)" filter="url(#Path_1)">
          <g id="Path_1-2" data-name="Path 1" transform="translate(143 39.5) rotate(90)" fill="#a3b1c6">
            <path d="M 81.41112518310547 83.50000762939453 L 15.5888671875 83.50000762939453 C 12.51592540740967 83.50000762939453 9.764055252075195 81.91119384765625 8.227607727050781 79.24992370605469 C 6.69117259979248 76.58866119384766 6.691219806671143 73.41104888916016 8.227761268615723 70.74983978271484 L 41.13886642456055 13.74912261962891 C 42.67533874511719 11.08800506591797 45.42716217041016 9.499287605285645 48.49998474121094 9.499287605285645 C 51.57280731201172 9.499287605285645 54.32463073730469 11.08800506591797 55.86110305786133 13.74911117553711 L 88.77223968505859 70.74983978271484 C 90.30878448486328 73.41104888916016 90.30883026123047 76.58865356445313 88.77239990234375 79.24992370605469 C 87.23594665527344 81.91119384765625 84.48407745361328 83.50000762939453 81.41112518310547 83.50000762939453 Z" stroke="none"/>
            <path d="M 48.49998474121094 9.999290466308594 C 45.60791397094727 9.999290466308594 43.01795959472656 11.49456024169922 41.57186508178711 13.99913787841797 L 8.660751342773438 70.99985504150391 C 7.214607238769531 73.50450897216797 7.214546203613281 76.49519348144531 8.660606384277344 78.99990844726563 C 10.10668182373047 81.504638671875 12.69667816162109 83.00000762939453 15.5888671875 83.00000762939453 L 81.41112518310547 83.00000762939453 C 84.30331420898438 83.00000762939453 86.893310546875 81.504638671875 88.33937072753906 78.99992370605469 C 89.78543090820313 76.49520874023438 89.78538513183594 73.50452423095703 88.33924102783203 70.99985504150391 L 55.4281005859375 13.99913787841797 C 53.98199462890625 11.49456024169922 51.39205551147461 9.999290466308594 48.49998474121094 9.999290466308594 M 48.49998474121094 8.999290466308594 C 51.53100967407227 8.999290466308594 54.56203842163086 10.49922943115234 56.29411315917969 13.49910736083984 L 89.20525360107422 70.49983215332031 C 92.66952514648438 76.49983215332031 88.33941650390625 83.99999237060547 81.41112518310547 84.00000762939453 L 15.5888671875 84.00000762939453 C 8.660575866699219 83.99999237060547 4.330451965332031 76.49983215332031 7.79473876953125 70.49983215332031 L 40.70585632324219 13.49910736083984 C 42.43793106079102 10.49922943115234 45.46895980834961 8.999290466308594 48.49998474121094 8.999290466308594 Z" stroke="none" fill="#fff"/>
          </g>
        </g>
        <g transform="matrix(1, 0, 0, 1, 166, 445)" filter="url(#Path_2)">
          <g id="Path_2-2" data-name="Path 2" transform="translate(143 39.5) rotate(90)" fill="#a3b1c6">
            <path d="M 81.41112518310547 83.50000762939453 L 15.5888671875 83.50000762939453 C 12.51592540740967 83.50000762939453 9.764055252075195 81.91119384765625 8.227607727050781 79.24992370605469 C 6.69117259979248 76.58866119384766 6.691219806671143 73.41104888916016 8.227761268615723 70.74983978271484 L 41.13886642456055 13.74912261962891 C 42.67533874511719 11.08800506591797 45.42716217041016 9.499287605285645 48.49998474121094 9.499287605285645 C 51.57280731201172 9.499287605285645 54.32463073730469 11.08800506591797 55.86110305786133 13.74911117553711 L 88.77223968505859 70.74983978271484 C 90.30878448486328 73.41104888916016 90.30883026123047 76.58865356445313 88.77239990234375 79.24992370605469 C 87.23594665527344 81.91119384765625 84.48407745361328 83.50000762939453 81.41112518310547 83.50000762939453 Z" stroke="none"/>
            <path d="M 48.49998474121094 9.999290466308594 C 45.60791397094727 9.999290466308594 43.01795959472656 11.49456024169922 41.57186508178711 13.99913787841797 L 8.660751342773438 70.99985504150391 C 7.214607238769531 73.50450897216797 7.214546203613281 76.49519348144531 8.660606384277344 78.99990844726563 C 10.10668182373047 81.504638671875 12.69667816162109 83.00000762939453 15.5888671875 83.00000762939453 L 81.41112518310547 83.00000762939453 C 84.30331420898438 83.00000762939453 86.893310546875 81.504638671875 88.33937072753906 78.99992370605469 C 89.78543090820313 76.49520874023438 89.78538513183594 73.50452423095703 88.33924102783203 70.99985504150391 L 55.4281005859375 13.99913787841797 C 53.98199462890625 11.49456024169922 51.39205551147461 9.999290466308594 48.49998474121094 9.999290466308594 M 48.49998474121094 8.999290466308594 C 51.53100967407227 8.999290466308594 54.56203842163086 10.49922943115234 56.29411315917969 13.49910736083984 L 89.20525360107422 70.49983215332031 C 92.66952514648438 76.49983215332031 88.33941650390625 83.99999237060547 81.41112518310547 84.00000762939453 L 15.5888671875 84.00000762939453 C 8.660575866699219 83.99999237060547 4.330451965332031 76.49983215332031 7.79473876953125 70.49983215332031 L 40.70585632324219 13.49910736083984 C 42.43793106079102 10.49922943115234 45.46895980834961 8.999290466308594 48.49998474121094 8.999290466308594 Z" stroke="none" fill="#fff"/>
          </g>
        </g>
      </g>
    </g>
  </g>
</svg>
