<svg xmlns="http://www.w3.org/2000/svg" xmlns:xlink="http://www.w3.org/1999/xlink" width="307" height="367" viewBox="0 0 307 367">
  <defs>
    <style>
      .cls-1 {
        fill: #eaf0f8;
        stroke: #fff;
      }

      .cls-2 {
        fill: #a3b1c6;
      }

      .cls-3, .cls-5 {
        stroke: none;
      }

      .cls-4 {
        fill: none;
      }

      .cls-5 {
        fill: #fff;
      }

      .cls-6 {
        filter: url(#Path_2);
      }

      .cls-7 {
        filter: url(#Path_1);
      }

      .cls-8 {
        filter: url(#Ellipse_2);
      }

      .cls-9 {
        filter: url(#Ellipse_1);
      }
    </style>
    <filter id="Ellipse_1" x="0" y="60" width="307" height="307" filterUnits="userSpaceOnUse">
      <feOffset dy="30" input="SourceAlpha"/>
      <feGaussianBlur stdDeviation="30" result="blur"/>
      <feFlood flood-color="#a7b3be"/>
      <feComposite operator="in" in2="blur"/>
      <feComposite in="SourceGraphic"/>
    </filter>
    <filter id="Ellipse_2" x="0" y="0" width="307" height="307" filterUnits="userSpaceOnUse">
      <feOffset dy="-30" input="SourceAlpha"/>
      <feGaussianBlur stdDeviation="30" result="blur-2"/>
      <feFlood flood-color="#f8fcff" flood-opacity="0.502"/>
      <feComposite operator="in" in2="blur-2"/>
      <feComposite in="SourceGraphic"/>
    </filter>
    <filter id="Path_1" x="108.431" y="141.855" width="101.939" height="108.302" filterUnits="userSpaceOnUse">
      <feOffset dy="12" input="SourceAlpha"/>
      <feGaussianBlur stdDeviation="8" result="blur-3"/>
      <feFlood flood-opacity="0.302"/>
      <feComposite operator="in" in2="blur-3"/>
      <feComposite in="SourceGraphic"/>
    </filter>
    <filter id="Path_2" x="108.431" y="117.855" width="101.939" height="108.302" filterUnits="userSpaceOnUse">
      <feOffset dy="-12" input="SourceAlpha"/>
      <feGaussianBlur stdDeviation="8" result="blur-4"/>
      <feFlood flood-color="#fff"/>
      <feComposite operator="in" in2="blur-4"/>
      <feComposite in="SourceGraphic"/>
    </filter>
  </defs>
  <g id="Group_36" data-name="Group 36" transform="translate(-27 -45)">
    <g id="Group_4" data-name="Group 4" transform="translate(117 165)">
      <g class="cls-9" transform="matrix(1, 0, 0, 1, -90, -120)">
        <g id="Ellipse_1-2" data-name="Ellipse 1" class="cls-1" transform="translate(90 120)">
          <circle class="cls-3" cx="63.5" cy="63.5" r="63.5"/>
          <circle class="cls-4" cx="63.5" cy="63.5" r="63"/>
        </g>
      </g>
      <g id="Component_1_2" data-name="Component 1 – 2">
        <g class="cls-8" transform="matrix(1, 0, 0, 1, -90, -120)">
          <g id="Ellipse_2-2" data-name="Ellipse 2" class="cls-1" transform="translate(90 120)">
            <circle class="cls-3" cx="63.5" cy="63.5" r="63.5"/>
            <circle class="cls-4" cx="63.5" cy="63.5" r="63"/>
          </g>
        </g>
      </g>
    </g>
    <g id="Group_5" data-name="Group 5" transform="translate(159.431 198.855)">
      <g class="cls-7" transform="matrix(1, 0, 0, 1, -132.43, -153.86)">
        <g id="Path_1-2" data-name="Path 1" class="cls-2" transform="translate(186.37 153.86) rotate(90)">
          <path class="cls-3" d="M 53.81997299194336 53.43866348266602 L 6.482232093811035 53.43866348266602 C 4.323011875152588 53.43866348266602 2.389382123947144 52.32227325439453 1.309792041778564 50.45231246948242 C 0.2302020639181137 48.58235168457031 0.230242058634758 46.34960174560547 1.30990207195282 44.47968292236328 L 24.97876167297363 3.486171722412109 C 26.05837249755859 1.616331696510315 27.99195289611816 0.5000016689300537 30.15109252929688 0.5000016689300537 C 32.31023025512695 0.5000016689300537 34.24381256103516 1.616331696510315 35.32342147827148 3.486171722412109 L 58.99231338500977 44.47968292236328 C 60.07197189331055 46.34960174560547 60.07200241088867 48.58236312866211 58.99241256713867 50.45231246948242 C 57.91282272338867 52.32227325439453 55.97920227050781 53.43866348266602 53.81997299194336 53.43866348266602 Z"/>
          <path class="cls-5" d="M 30.15109252929688 1 C 28.17270278930664 1 26.40099334716797 2.022872924804688 25.41176223754883 3.736183166503906 L 1.742900848388672 44.72969055175781 C 0.753631591796875 46.44306182861328 0.75360107421875 48.4889030456543 1.742801666259766 50.20231246948242 C 2.732013702392578 51.91572189331055 4.503761291503906 52.93866348266602 6.482231140136719 52.93866348266602 L 53.81997299194336 52.93866348266602 C 55.79844284057617 52.93866348266602 57.5701904296875 51.91572189331055 58.55940246582031 50.20231246948242 C 59.54861068725586 48.4889030456543 59.5485725402832 46.44306182861328 58.55931091308594 44.72969055175781 L 34.89042282104492 3.736183166503906 C 33.90118408203125 2.022872924804688 32.12947082519531 1 30.15109252929688 1 M 30.15109252929688 0 C 32.33092880249023 0 34.51076507568359 1.078720092773438 35.75643157958984 3.236160278320313 L 59.42532348632813 44.22967147827148 C 61.91674041748047 48.54472351074219 58.80263137817383 53.93865203857422 53.81997299194336 53.93866348266602 L 6.482231140136719 53.93866348266602 C 1.49957275390625 53.93865203857422 -1.614536285400391 48.54472351074219 0.87689208984375 44.22967147827148 L 24.54575347900391 3.236160278320313 C 25.79141616821289 1.078720092773438 27.97125625610352 0 30.15109252929688 0 Z"/>
        </g>
      </g>
      <g class="cls-6" transform="matrix(1, 0, 0, 1, -132.43, -153.86)">
        <g id="Path_2-2" data-name="Path 2" class="cls-2" transform="translate(186.37 153.86) rotate(90)">
          <path class="cls-3" d="M 53.81997299194336 53.43866348266602 L 6.482232093811035 53.43866348266602 C 4.323011875152588 53.43866348266602 2.389382123947144 52.32227325439453 1.309792041778564 50.45231246948242 C 0.2302020639181137 48.58235168457031 0.230242058634758 46.34960174560547 1.30990207195282 44.47968292236328 L 24.97876167297363 3.486171722412109 C 26.05837249755859 1.616331696510315 27.99195289611816 0.5000016689300537 30.15109252929688 0.5000016689300537 C 32.31023025512695 0.5000016689300537 34.24381256103516 1.616331696510315 35.32342147827148 3.486171722412109 L 58.99231338500977 44.47968292236328 C 60.07197189331055 46.34960174560547 60.07200241088867 48.58236312866211 58.99241256713867 50.45231246948242 C 57.91282272338867 52.32227325439453 55.97920227050781 53.43866348266602 53.81997299194336 53.43866348266602 Z"/>
          <path class="cls-5" d="M 30.15109252929688 1 C 28.17270278930664 1 26.40099334716797 2.022872924804688 25.41176223754883 3.736183166503906 L 1.742900848388672 44.72969055175781 C 0.753631591796875 46.44306182861328 0.75360107421875 48.4889030456543 1.742801666259766 50.20231246948242 C 2.732013702392578 51.91572189331055 4.503761291503906 52.93866348266602 6.482231140136719 52.93866348266602 L 53.81997299194336 52.93866348266602 C 55.79844284057617 52.93866348266602 57.5701904296875 51.91572189331055 58.55940246582031 50.20231246948242 C 59.54861068725586 48.4889030456543 59.5485725402832 46.44306182861328 58.55931091308594 44.72969055175781 L 34.89042282104492 3.736183166503906 C 33.90118408203125 2.022872924804688 32.12947082519531 1 30.15109252929688 1 M 30.15109252929688 0 C 32.33092880249023 0 34.51076507568359 1.078720092773438 35.75643157958984 3.236160278320313 L 59.42532348632813 44.22967147827148 C 61.91674041748047 48.54472351074219 58.80263137817383 53.93865203857422 53.81997299194336 53.93866348266602 L 6.482231140136719 53.93866348266602 C 1.49957275390625 53.93865203857422 -1.614536285400391 48.54472351074219 0.87689208984375 44.22967147827148 L 24.54575347900391 3.236160278320313 C 25.79141616821289 1.078720092773438 27.97125625610352 0 30.15109252929688 0 Z"/>
        </g>
      </g>
    </g>
  </g>
</svg>
